<svg width="32" height="32" viewBox="0 0 32 32" fill="none" xmlns="http://www.w3.org/2000/svg">
<path d="M15.9997 22.6667C15.2924 22.6667 14.6142 22.3857 14.1141 21.8856C13.614 21.3855 13.333 20.7072 13.333 20C13.333 18.52 14.5197 17.3333 15.9997 17.3333C16.7069 17.3333 17.3852 17.6143 17.8853 18.1144C18.3854 18.6145 18.6663 19.2928 18.6663 20C18.6663 20.7072 18.3854 21.3855 17.8853 21.8856C17.3852 22.3857 16.7069 22.6667 15.9997 22.6667ZM23.9997 26.6667V13.3333H7.99967V26.6667H23.9997ZM23.9997 10.6667C24.7069 10.6667 25.3852 10.9476 25.8853 11.4477C26.3854 11.9478 26.6663 12.6261 26.6663 13.3333V26.6667C26.6663 27.3739 26.3854 28.0522 25.8853 28.5523C25.3852 29.0524 24.7069 29.3333 23.9997 29.3333H7.99967C7.29243 29.3333 6.61415 29.0524 6.11406 28.5523C5.61396 28.0522 5.33301 27.3739 5.33301 26.6667V13.3333C5.33301 11.8533 6.51967 10.6667 7.99967 10.6667H9.33301V8C9.33301 6.23188 10.0354 4.53619 11.2856 3.28595C12.5359 2.03571 14.2316 1.33333 15.9997 1.33333C16.8752 1.33333 17.7421 1.50577 18.5509 1.8408C19.3597 2.17583 20.0947 2.66689 20.7137 3.28595C21.3328 3.90501 21.8238 4.63993 22.1589 5.44877C22.4939 6.25761 22.6663 7.12452 22.6663 8V10.6667H23.9997ZM15.9997 3.99999C14.9388 3.99999 13.9214 4.42142 13.1712 5.17157C12.4211 5.92171 11.9997 6.93913 11.9997 8V10.6667H19.9997V8C19.9997 6.93913 19.5782 5.92171 18.8281 5.17157C18.078 4.42142 17.0605 3.99999 15.9997 3.99999Z" fill="#213536"/>
</svg>
